<svg id="Слой_1" data-name="Слой 1" xmlns="http://www.w3.org/2000/svg" viewBox="0 0 44 51"><defs><style>.cls-1{fill:#050505}</style></defs><path class="cls-1" d="M39.6 15.09a2.81 2.81 0 001 .19 2.76 2.76 0 002.06-.94 2.63 2.63 0 00-.32-3.73l-2.1-1.73a2.7 2.7 0 00-3.79.32 2.57 2.57 0 00-.63 1.93 2.66 2.66 0 00.38 1.14l-.56.66a21.79 21.79 0 00-10.45-4.39V7a3.24 3.24 0 001.92-2.95v-.71a3.28 3.28 0 00-3.3-3.25h-3.13a3.28 3.28 0 00-3.3 3.25v.74A3.25 3.25 0 0019.25 7v1.54a21.81 21.81 0 00-11.09 4.9l-1-1.17a2.53 2.53 0 00.38-1.14 2.61 2.61 0 00-.62-1.93 2.7 2.7 0 00-2.06-.95 2.77 2.77 0 00-1.74.63L1 10.61a2.62 2.62 0 00-.32 3.73 2.7 2.7 0 003 .75l1.31 1.53A21 21 0 00.52 29.67 21.54 21.54 0 0022.22 51a21.55 21.55 0 0021.7-21.33A21 21 0 0038.84 16zm-17.38 34A19.57 19.57 0 012.51 29.67a19.07 19.07 0 013.88-11.54c.15-.2.3-.39.46-.58a20 20 0 012.06-2.16c.17-.16.35-.31.53-.46a19.86 19.86 0 019.81-4.42l.71-.09.71-.07c.51 0 1-.06 1.55-.06s1 0 1.55.06l.71.07.71.09a19.73 19.73 0 019.17 3.91c.19.14.37.29.55.44l.54.46c.4.35.78.73 1.15 1.11l.48.52c.16.18.31.36.46.55a19.09 19.09 0 014.39 12.17 19.57 19.57 0 01-19.71 19.38zM2.78 13.88a1.29 1.29 0 01-1-.44A1.25 1.25 0 012 11.67l2-1.73a1.28 1.28 0 01.82-.29 1.27 1.27 0 011 .44 1.24 1.24 0 01.3.92 1.38 1.38 0 01-.17.53 1.22 1.22 0 01-.28.32L3.6 13.59a1.36 1.36 0 01-.37.21 1.42 1.42 0 01-.45.08zm3.39-.6l.94 1.1c-.39.37-.76.75-1.12 1.15l-1-1.23zM18.8 3.34a1.87 1.87 0 011.88-1.85h3.13a1.87 1.87 0 011.88 1.85v.74A1.85 1.85 0 0125 5.52a1.91 1.91 0 01-1.19.42h-3.13a1.89 1.89 0 01-1.22-.45 1.84 1.84 0 01-.66-1.41zm1.87 4h3.1V8.4c-.51 0-1-.06-1.55-.06s-1 0-1.55.06zm16.06 6.5l.47-.55 1.23 1-.54.63c-.38-.37-.76-.74-1.16-1.09zm4.83-.39a1.27 1.27 0 01-1 .44 1.33 1.33 0 01-.45-.08 1.23 1.23 0 01-.37-.21l-2.09-1.73a1.18 1.18 0 01-.27-.32 1.11 1.11 0 01-.17-.53 1.23 1.23 0 01.29-.92 1.31 1.31 0 011.8-.15l2.08 1.73a1.24 1.24 0 01.18 1.76z"/><path class="cls-1" d="M24.26 13.07a17.49 17.49 0 00-4.09 0 16.85 16.85 0 00-15 16.6 16.9 16.9 0 0017 16.73 16.89 16.89 0 0017-16.73 16.85 16.85 0 00-14.91-16.6zm-2 31.37a14.77 14.77 0 110-29.54 14.92 14.92 0 0115 14.77 14.92 14.92 0 01-15.04 14.77z"/><path class="cls-1" d="M22.22 20.29a1 1 0 001-1V16.2a1 1 0 00-2 0v3.11a1 1 0 001 .98zm0 18.76a1 1 0 00-1 1v3.11a1 1 0 002 0V40a1 1 0 00-1-.95zm-5.99-21.53a1 1 0 00-1.36-.36 1 1 0 00-.36 1.34l1.58 2.69a1 1 0 00.86.49 1.13 1.13 0 00.5-.13 1 1 0 00.36-1.34zm12.12 20.63A1 1 0 0027 37.8a1 1 0 00-.36 1.33l1.58 2.69a1 1 0 00.86.49 1 1 0 00.49-.13 1 1 0 00.37-1.33zm-14.76-14.5l-2.74-1.56a1 1 0 00-1.36.36 1 1 0 00.37 1.33l2.74 1.56a1 1 0 00.49.13A1 1 0 0014 25a1 1 0 00-.41-1.35zm20.99 11.91L31.84 34a1 1 0 00-1.36.36 1 1 0 00.37 1.34l2.74 1.55a1 1 0 00.49.13 1 1 0 00.86-.49 1 1 0 00-.36-1.33zm-21.91-5.89a1 1 0 00-1-1H8.52a1 1 0 100 2h3.16a1 1 0 00.99-1zm23.25-.98h-3.17a1 1 0 100 2h3.17a1 1 0 100-2zM12.6 34l-2.74 1.56a1 1 0 00-.37 1.33 1 1 0 00.86.49 1 1 0 00.5-.13l2.74-1.55a1 1 0 00.41-1.34 1 1 0 00-1.4-.36zm17.88-9a1 1 0 001.36.36l2.74-1.56a1 1 0 00.36-1.33 1 1 0 00-1.35-.36l-2.74 1.56a1 1 0 00-.37 1.33zM17.45 37.8a1 1 0 00-1.36.35l-1.58 2.7a1 1 0 00.36 1.33 1 1 0 00.5.13 1 1 0 00.86-.49l1.58-2.69a1 1 0 00-.36-1.33zM27 21.55a1.13 1.13 0 00.5.13 1 1 0 00.86-.49l1.58-2.69a1 1 0 00-.37-1.34 1 1 0 00-1.35.36l-1.58 2.69a1 1 0 00.36 1.34zm4.61-.45a.73.73 0 00-.91-.1l-8.64 5.57a3.12 3.12 0 103.32 3.37L31.65 22a.69.69 0 00-.04-.9zm-9.39 9.73a1.16 1.16 0 111.18-1.16 1.17 1.17 0 01-1.18 1.16zM25 28.15A3.19 3.19 0 0023.91 27l4-2.58z"/></svg>