<svg id="Слой_1" data-name="Слой 1" xmlns="http://www.w3.org/2000/svg" viewBox="0 0 72 72"><defs><style/></defs><path d="M.61 24.35l3.13 3.84 31.13 38.17L22 24.35H.61zm36.58 41.91l31.04-38.07 3.13-3.84H51.2L37.19 66.26zM59.23 4H36.87l13.76 18.23L59.23 4zm-47.66.68L.46 22.78h20.8l-9.69-18.1zm59.95 18.1L60.42 4.7l-8.54 18.08h19.64zM35.13 4H12.77l9.76 18.23L35.13 4zm.88 1.2L23.86 22.78h25.42L36.01 5.2z"/><path d="M72 23.57l-.48-.78H51.88L60.42 4.7 60 4h-.76l-8.6 18.23L36.87 4h-1.74l-12.6 18.23L12.77 4H12l-.41.68 9.69 18.1H.46l-.46.79.64.78H22l12.87 42L36 67.74l1.2-1.48 14-41.91h20.16l.64-.78zM36 5.2l13.28 17.58H23.86zm0 60.34L23.4 24.35h26.39z" fill="#fff"/><path d="M36.01 67.74l13.78-43.39H23.4l12.61 43.39z"/></svg>