<svg data-name="Слой 1" xmlns="http://www.w3.org/2000/svg" viewBox="0 0 44 51"><path d="M19.27 3.4C11.9 4.12 5 7.45 4.65 15.5 4.3 24.55 11.84 27.2 19.27 29v10.06c-3.66-1.61-3.78-5.89-3.78-5.89L3 34.59c1 8.76 8.52 12 16.27 12.51v3.35h2.61V.21h-2.61zm0 14.66c-.26-.1-.5-.21-.72-.32-3.24-1.67-2.8-5.06.72-6.28zm19.07 7.57c-3.73-3.3-8.81-4.76-13.09-5.86v-8.12a5.76 5.76 0 013.08 3.73l12.13-2c-1.37-5.6-7.28-9.32-15.21-10V.21h-2.1v50.24h2.1V47c4.31-.42 8.11-1.52 10.15-2.75 6.48-3.9 9.07-13.2 2.94-18.62zM25.25 39.37v-8.72c3 1 4 2 4.49 3.7.58 2.01-.87 4.25-4.49 5.02z"/></svg>