<svg data-name="Слой 1" xmlns="http://www.w3.org/2000/svg" viewBox="0 0 70 70"><path d="M35 70a35 35 0 1135-35 35 35 0 01-35 35zm0-66.24A31.24 31.24 0 1066.24 35 31.27 31.27 0 0035 3.76z" fill="#fff"/><path d="M29.51 35.17v20.28A.53.53 0 0030 56h7.53a.53.53 0 00.53-.53V34.83h5.46a.53.53 0 00.53-.48l.52-6.21a.52.52 0 00-.52-.57h-6v-4.41A1.87 1.87 0 0140 21.29h4.21a.53.53 0 00.53-.53v-6.21a.53.53 0 00-.53-.53h-7.14a7.55 7.55 0 00-7.56 7.56v6h-3.77a.52.52 0 00-.52.52v6.22a.52.52 0 00.52.52h3.77z" fill-rule="evenodd" fill="#fff"/></svg>