<svg data-name="Слой 1" xmlns="http://www.w3.org/2000/svg" viewBox="0 0 72 72"><path d="M58.69 8.61a29.48 29.48 0 00-19.11-7.43l-.17 27.31z"/><path d="M34.45 1C15.12 1 .84 16.67.84 36a35 35 0 0035 35c13.55 0 26.16-8 30.8-18.33L35.15 36V1z"/><path d="M52.49 21.16l-5.06 16.15 2.92 1.56 7.18-22.89-5.04 5.18zm-6.53 6.71l-2.33 7.41 2.93 1.56L51 22.69l-5.04 5.18zm20.76-9.72L58.8 43.4l2.92 1.6 7.09-22.58a33.24 33.24 0 00-2.09-4.27zm2.64 5.68l-6.77 21.6L65.51 47l5.35-17a31 31 0 00-1.5-6.17zM71.16 34v-1.65l-4.78 15.11 1.71.92A31.26 31.26 0 0071.16 34zm-9.42-22.34L59 14.44l-7.81 24.9 2.92 1.56 8.78-28c-.35-.41-.75-.83-1.15-1.24zm-21.31 21.9l2.34 1.25 1.7-5.4-4.04 4.15zm23.24-19.78L55 41.37l2.92 1.56 8.12-25.87a32.69 32.69 0 00-2.37-3.28z"/></svg>