<svg data-name="Слой 1" xmlns="http://www.w3.org/2000/svg" viewBox="0 0 72 72"><path d="M60.39 13.43c-4.25 2.33-7.27 3.75-9.69 3.38a17.09 17.09 0 009.54-8.75c.18-.4-1.12-1-1.54-1.15a.85.85 0 00-1.1.42 15 15 0 01-6.44 7.47A32.85 32.85 0 0055.07 0H16.93c0 5.78 2.43 14.1 6.28 18.05H48.8a13.65 13.65 0 003.83.53 18.71 18.71 0 009-2.53c.4-.22.1-1.92-.13-2.3a.85.85 0 00-1.11-.32zm-11.3 6.42H22.91C9.78 24.86.5 37.16.5 51.54.5 70.37 16.39 72 36 72s35.5-1.63 35.5-20.46c0-14.38-9.28-26.68-22.41-31.69zm-3.37 30.91a8 8 0 01-7.31 6.91v4.36h-4.36V58s-5-.25-7.81-1.93l1.65-4.92a18.48 18.48 0 004.27 1.48c2.3.45 6.27.33 6.76-1.74S38 48.1 35.2 47.33s-7.78-3-8.23-6.67c-.49-4 1.39-7.08 7-8.23v-4.21h4.39v3.7s4.49.33 6.18 1.37l-1.06 4.52a24.53 24.53 0 00-7.15-1.17c-2.9.2-3.09 3-1 4.29 2.43 1.49 6 2.58 7.17 3.16a6.44 6.44 0 013.22 6.67z"/></svg>