<svg data-name="Слой 1" xmlns="http://www.w3.org/2000/svg" viewBox="0 0 44 51"><path d="M4.79 20.32a2.16 2.16 0 00-2 3.64l4.08 4.08 6.43-6.43-8.51-1.32zm23.46 23.22L27 35.39l-6.4 6.4 3.92 3.92a1.56 1.56 0 00.16.2 2.17 2.17 0 003.54-2.35zM21 29.47l-1.8-1.78a1.54 1.54 0 00-1.1-.46 1.52 1.52 0 00-1.1.46L13.72 31l-.5.5a1.52 1.52 0 00-.46 1.1 1.58 1.58 0 00.46 1.1L15 35.45a1.58 1.58 0 001.1.46 1.52 1.52 0 001.1-.46l3.8-3.78a1.55 1.55 0 000-2.2z"/><path d="M37 23.78l4.66-13.9a1.9 1.9 0 00.15-.46A2.09 2.09 0 0039.27 7l-.3.1-13.59 4.44a2.46 2.46 0 00-1.29.66l-9.62 9.62-6.92 6.92-1.17 1.17a2.61 2.61 0 000 3.71L8 35.21l-.4.78 5.06 5.07.78-.4 1.64 1.63a2.61 2.61 0 003.71 0l1.17-1.17 6.89-6.88 9.65-9.66a2.63 2.63 0 00.5-.8zM17.69 35.94a2.25 2.25 0 01-3.17 0l-1.79-1.79a2.25 2.25 0 010-3.17l.5-.49 3.29-3.29a2.24 2.24 0 013.16 0l1.79 1.8a2.24 2.24 0 010 3.16zm6.77-11.73a4 4 0 115.7 0 4 4 0 01-5.7 0z"/></svg>