<svg data-name="Слой 1" xmlns="http://www.w3.org/2000/svg" viewBox="0 0 44 45"><path d="M13.87 19.57l1.34-1.47a6 6 0 00-.43-8.6l-2.27-2a6.21 6.21 0 00-8.71.43L2.46 9.37A8 8 0 002 10l-.06.07C.64 11.12-.44 13.73.18 16.91a34.44 34.44 0 0030.76 27.47 8.76 8.76 0 005.31-1.09 6.55 6.55 0 001.51-1.2l1.34-1.46a6.06 6.06 0 00-.44-8.63l-2.26-2a6.24 6.24 0 00-8.72.43l-1.34 1.47a6 6 0 00-1.27 2.1l-.12.35-.35-.13a25.89 25.89 0 01-13.74-12.41l-.19-.38.41-.12a6.18 6.18 0 002.79-1.74zM21.4 2a1.43 1.43 0 001.44 1.41 18.19 18.19 0 0118.28 18.06 1.44 1.44 0 002.88 0A21.06 21.06 0 0022.84.57 1.44 1.44 0 0021.4 2z"/><path d="M21.17 8.94a1.43 1.43 0 001.44 1.42 11.42 11.42 0 0111.48 11.33 1.44 1.44 0 002.87 0A14.28 14.28 0 0022.61 7.52a1.44 1.44 0 00-1.44 1.42z"/></svg>