<svg id="Слой_1" data-name="Слой 1" xmlns="http://www.w3.org/2000/svg" viewBox="0 0 70 49"><defs><style>.cls-1{fill:#050505}</style></defs><path class="cls-1" d="M17.74 35.51A7.5 7.5 0 1025.09 43a7.44 7.44 0 00-7.35-7.49zm0 12.71A5.22 5.22 0 1122.86 43a5.17 5.17 0 01-5.12 5.22z" transform="translate(0 -1.5)"/><path class="cls-1" d="M17.74 39.88A3.13 3.13 0 1020.81 43a3.1 3.1 0 00-3.07-3.12zm37.56-4.37A7.5 7.5 0 1062.65 43a7.44 7.44 0 00-7.35-7.49zm0 12.71A5.22 5.22 0 1160.42 43a5.17 5.17 0 01-5.12 5.22z" transform="translate(0 -1.5)"/><path class="cls-1" d="M55.3 39.88A3.13 3.13 0 1058.37 43a3.1 3.1 0 00-3.07-3.12z" transform="translate(0 -1.5)"/><path class="cls-1" d="M69.32 20.56l-6.17-2.63c-.78-1.43-3.76-6.71-6.11-8.79a1.08 1.08 0 00-.73-.27h-9.14V2.64a1.13 1.13 0 00-1.11-1.14H1.12A1.13 1.13 0 000 2.64v27.79a1.13 1.13 0 001.12 1.14h1.93v8.31A1.13 1.13 0 004.17 41h4.92a1.12 1.12 0 001.05-.75 8 8 0 0115.2 0 1.12 1.12 0 001.05.75h20.26a1.12 1.12 0 001.05-.75 8 8 0 0115.2 0A1.12 1.12 0 0064 41h4.93A1.13 1.13 0 0070 39.88V21.61a1.14 1.14 0 00-.68-1.05zm-22.13-9.42h8.68c2.35 2.33 5.48 8.17 5.52 8.23a1 1 0 00.55.5l5.83 2.5v7.05H47.19zm-45-4h2.86v19H2.23zm4.26 0h3v19h-3zm4.43 0h3v19h-3zm4.44 0h3v19h-3zm4.43 0h3v19h-3zm4.44 0h3v19h-3zm4.43 0h3v19h-3zm4.44 0h3v19h-3zm4.43 0h3v19h-3zM42 7.1h3v19h-3zM2.23 3.78h42.71v1.7H2.23zm0 25.51v-1.6h42.71v1.6zm65.54 9.45h-3.06a10.21 10.21 0 00-18.81 0H27.15a10.21 10.21 0 00-18.81 0h-3v-7h62.43z" transform="translate(0 -1.5)"/><path class="cls-1" d="M54.43 13.1h-5.88v7.11H59.4l-.06-.1a50.52 50.52 0 00-4.91-7.01z" transform="translate(0 -1.5)"/><path class="cls-1" d="M50.13 21.41h3.53v1.31h-3.53z"/></svg>