<svg data-name="Слой 1" xmlns="http://www.w3.org/2000/svg" viewBox="0 0 72 72"><path d="M14.52 36A21.45 21.45 0 1036 14.56 21.45 21.45 0 0014.52 36zm36.39-1.3a15 15 0 11-16.25-13.65 15 15 0 0116.25 13.61z"/><path d="M65.38 47.79l3.54-.13a2.2 2.2 0 001.9-1.51l1.18-5.6a2.18 2.18 0 00-1.13-2.14l-3.19-1.54a2.69 2.69 0 01-1.38-2.16s0-.41-.09-1.38V33c0-.36.48-1 1.18-1.46l3-1.89a2.2 2.2 0 00.89-2.26L69.47 22a2.19 2.19 0 00-2-1.28l-3.56.25a2.53 2.53 0 01-2.17-1c-.37-.61-1.14-2.74-.75-3.46l1.65-3.14a2.19 2.19 0 00-.36-2.39L58 7.13A2.2 2.2 0 0055.54 7l-2.95 2a2.55 2.55 0 01-2.38.22c-.62-.34-2.36-1.81-2.39-2.64l-.14-3.53a2.18 2.18 0 00-1.51-1.9L40.56 0a2.18 2.18 0 00-2.14 1.13l-1.55 3.21a2.67 2.67 0 01-2.15 1.37s-.42 0-1.38.09H33c-.36 0-1-.49-1.46-1.19l-1.9-3a2.18 2.18 0 00-2.25-.86l-5.45 1.78a2.17 2.17 0 00-1.29 2l.26 3.55a2.52 2.52 0 01-1 2.17c-.61.37-2.74 1.14-3.47.76L13.29 9.4a2.18 2.18 0 00-2.4.35L7.07 14A2.18 2.18 0 007 16.43l2 2.94a2.53 2.53 0 01.22 2.37c-.35.63-1.82 2.36-2.64 2.39L3 24.27a2.2 2.2 0 00-1.9 1.5L0 31.38a2.18 2.18 0 001.13 2.13l3.2 1.55a2.66 2.66 0 011.37 2.15s0 .41.09 1.38v.33c.05.37-.49 1-1.19 1.46l-3 1.9a2.2 2.2 0 00-.89 2.25L2.46 50a2.21 2.21 0 002.06 1.29L8.07 51a2.53 2.53 0 012.17 1c.37.61 1.14 2.73.76 3.46l-1.66 3.13A2.19 2.19 0 009.7 61l4.3 3.79a2.16 2.16 0 002.42.09l2.94-2a2.52 2.52 0 012.38-.21c.62.34 2.36 1.81 2.39 2.63l.14 3.54a2.18 2.18 0 001.51 1.89l5.61 1.17a2.2 2.2 0 002.14-1.13l1.55-3.2a2.7 2.7 0 012.16-1.37s.41 0 1.38-.08h.33c.37 0 1 .48 1.47 1.18l1.89 3a2.19 2.19 0 002.26.89L50 69.4a2.19 2.19 0 001.28-2.05L51 63.8a2.53 2.53 0 011-2.17c.61-.37 2.74-1.13 3.47-.75l3.15 1.65a2.19 2.19 0 002.38-.36l3.82-4.26a2.16 2.16 0 00.18-2.42l-2-2.94a2.48 2.48 0 01-.22-2.37c.3-.62 1.77-2.36 2.6-2.39zM36 60.35A24.39 24.39 0 1160.41 36 24.44 24.44 0 0136 60.35z"/></svg>