<svg id="Слой_1" data-name="Слой 1" xmlns="http://www.w3.org/2000/svg" viewBox="0 0 69.82 69.82"><defs><style>.cls-2{fill:none;stroke:#fff;stroke-linecap:round;stroke-linejoin:round;stroke-width:2px}</style></defs><path d="M35 3.59A31.41 31.41 0 113.59 35 31.44 31.44 0 0135 3.59m0-3.5A34.91 34.91 0 1069.91 35 34.91 34.91 0 0035 .09z" transform="translate(-.09 -.09)" fill="#fff"/><path class="cls-2" d="M26.04 38.19l3.85 10.4m.44-8.47l-.38 8.58 5.52-4.68-5.14-3.9z"/><path class="cls-2" d="M52.16 19.74L17 33.09a1.13 1.13 0 000 2.13l9.06 3.06 20.7-12.39-16.34 14.32 12.72 9.65a2.32 2.32 0 003.65-1.28l6.87-27.51a1.13 1.13 0 00-1.5-1.33z" transform="translate(-.09 -.09)"/></svg>