<svg id="Слой_1" data-name="Слой 1" xmlns="http://www.w3.org/2000/svg" viewBox="0 0 70 70"><defs><style>.cls-2{fill:#fff;fill-rule:evenodd}</style></defs><path d="M35 70a35 35 0 1135-35 35 35 0 01-35 35zm0-66.24A31.24 31.24 0 1066.24 35 31.27 31.27 0 0035 3.76z" fill="#fff"/><path class="cls-2" d="M36.65 12.22a21.16 21.16 0 00-21.13 21.13A20.9 20.9 0 0018.9 44.8l-3.21 7.07a1.84 1.84 0 001.68 2.61 1.59 1.59 0 00.48-.07L26.7 52a21.13 21.13 0 1010-39.77zm0 38.57a17.38 17.38 0 01-8.78-2.38 1.91 1.91 0 00-.93-.25 1.66 1.66 0 00-.49.07l-5.78 1.58 2-4.43a1.84 1.84 0 00-.19-1.84 17.44 17.44 0 1114.15 7.25z"/><path class="cls-2" d="M44.78 36.51c-.89-.53-2-1.12-3.08-.69-.8.33-1.31 1.58-1.83 2.22a.76.76 0 01-1 .21 13.86 13.86 0 01-7-6 .85.85 0 01.1-1.16 4.67 4.67 0 001.27-2.06 4.54 4.54 0 00-.57-2.43c-.42-.9-.88-2.19-1.79-2.7a2.45 2.45 0 00-2.67.4 5.4 5.4 0 00-1.88 4.29 6.18 6.18 0 00.22 1.41 11 11 0 001.31 3 24 24 0 001.36 2.08 21.22 21.22 0 005.92 5.49 18.11 18.11 0 003.69 1.76 8.23 8.23 0 004.29.67A5.2 5.2 0 0047 40.11a2.52 2.52 0 00.18-1.48c-.18-1.02-1.58-1.63-2.4-2.12z"/></svg>