<svg data-name="Слой 1" xmlns="http://www.w3.org/2000/svg" viewBox="0 0 44 51"><path d="M22 50.73a20.91 20.91 0 0015.31-35.21C39 12.76 41 9 41 6.94a6.67 6.67 0 00-13.34 0 8.58 8.58 0 00.74 2.94 20.91 20.91 0 00-17 1.95A5.57 5.57 0 001 14.67c0 1.43 1.14 3.79 2.31 5.84A20.92 20.92 0 0022 50.73zM10 30.8a20.43 20.43 0 001.55 6.51 20.84 20.84 0 00-5.27 3 18.81 18.81 0 01-3.14-9.51zm3.06-6.94a30.65 30.65 0 008 1.43v3.53H12a18 18 0 011.06-4.96zm19 5H23v-3.53a31.39 31.39 0 008.11-1.13 18.24 18.24 0 01.99 4.62zm-1.3 7.51a32 32 0 00-7.76-1V30.8h9.1a18.24 18.24 0 01-1.3 5.53zM12 30.8h9.06v4.54a31.14 31.14 0 00-7.63 1.31A18.19 18.19 0 0112 30.8zm9.06 6.52v9.93a34.84 34.84 0 01-6.79-8.78 29.47 29.47 0 016.78-1.15zm2 9.92v-10a29.35 29.35 0 016.93.88A34.29 34.29 0 0123 47.24zm0-23.9v-11.1a34.16 34.16 0 017.37 10.11 29.67 29.67 0 01-7.43.99zm-2-11.09V23.3a28.77 28.77 0 01-7.24-1.3 34.45 34.45 0 017.23-9.75zM7.46 41.87a19.08 19.08 0 014.89-2.74 31.34 31.34 0 003.35 5.24 41.42 41.42 0 003.84 4.22 19 19 0 01-12.08-6.72zm17.06 6.71a40.22 40.22 0 003.85-4.22 31.72 31.72 0 003.54-5.62 20.67 20.67 0 015.18 2.55 19 19 0 01-12.57 7.29zm13.69-8.93a22.87 22.87 0 00-5.51-2.74 20.25 20.25 0 001.39-6.11H41a18.83 18.83 0 01-2.79 8.85zm-4.12-10.83A19.78 19.78 0 0033 23.6a21.82 21.82 0 005.6-2.92 18.87 18.87 0 012.4 8.14zM39 6.94c0 1.39-1.52 4.4-3.17 7.16-.35.59-.71 1.17-1.06 1.71-.15.25-.3.48-.45.71-.44-.67-.9-1.41-1.36-2.17-.68-1.13-1.35-2.31-1.91-3.41a11.39 11.39 0 01-1.42-4 4.69 4.69 0 019.37 0zm-9.4 5.51a70.15 70.15 0 003.9 6.42 1 1 0 001.64 0c.14-.21.54-.79 1.06-1.61A18.8 18.8 0 0137.57 19a19.94 19.94 0 01-5.25 2.76 30.34 30.34 0 00-3.95-6.56 39.48 39.48 0 00-3.69-4.13 19 19 0 014.93 1.38zm-10.2-1.39a40.65 40.65 0 00-3.69 4.13A31.45 31.45 0 0012 21.34a21.52 21.52 0 01-2-1c1.5-2.63 2.23-4.49 2.23-5.69a4.9 4.9 0 00-.08-.94 18.77 18.77 0 017.26-2.65zm-12.84 0a3.61 3.61 0 013.14 1.87 3.66 3.66 0 01.45 1.74 2 2 0 01-.07.48 18.39 18.39 0 01-1.86 4.17c-.29.54-.63 1.11-1 1.72l-.64 1c-.36-.55-.69-1.07-1-1.57-.43-.72-.81-1.38-1.12-2A11.35 11.35 0 013 14.67a3.58 3.58 0 013.57-3.58zm-2 11.48c.59.93 1.06 1.61 1.2 1.82a1 1 0 00.82.43 1 1 0 00.81-.43c0-.06.7-1 1.51-2.32.73.4 1.51.77 2.31 1.11A20.35 20.35 0 0010 28.82H3.14a18.81 18.81 0 011.41-6.25z" fill="#050505"/></svg>