<svg id="Слой_2" data-name="Слой 2" xmlns="http://www.w3.org/2000/svg" viewBox="0 0 39.58 35.11"><path d="M5.23,41.14V39.91c-.07-2.36,1.16-4,3.65-5l7.4-1.31a14.35,14.35,0,0,0,3.66-5c1-2.7,2.27-7.48,3.57-12.4a75,75,0,0,0,1.08-7.9.74.74,0,0,1,.82-.68,74.12,74.12,0,0,0,14.7-.19.78.78,0,0,1,.81.51,91.32,91.32,0,0,1,3.67,14.22l.21,19.37a.42.42,0,0,1-.4.41l-9.08.09a.4.4,0,0,1-.41-.4l-.11-10.46c0-.07-.1-.1-.13,0l-3.52,6a15.63,15.63,0,0,1-4.89,5A66.08,66.08,0,0,1,5.23,41.14Z" transform="translate(-5.21 -7.45)"/></svg>