<svg id="Слой_1" data-name="Слой 1" xmlns="http://www.w3.org/2000/svg" viewBox="0 0 44 51"><defs><style>.cls-1{fill:#050505;}</style></defs><path class="cls-1" d="M39.6,15.09a2.81,2.81,0,0,0,1,.19,2.76,2.76,0,0,0,2.06-.94,2.63,2.63,0,0,0-.32-3.73L40.24,8.88a2.7,2.7,0,0,0-3.79.32,2.57,2.57,0,0,0-.63,1.93,2.66,2.66,0,0,0,.38,1.14l-.56.66A21.79,21.79,0,0,0,25.19,8.54V7a3.24,3.24,0,0,0,1.92-2.95V3.34A3.28,3.28,0,0,0,23.81.09H20.68a3.28,3.28,0,0,0-3.3,3.25v.74A3.25,3.25,0,0,0,19.25,7V8.54a21.81,21.81,0,0,0-11.09,4.9l-1-1.17a2.53,2.53,0,0,0,.38-1.14A2.61,2.61,0,0,0,6.92,9.2a2.7,2.7,0,0,0-2.06-.95,2.77,2.77,0,0,0-1.74.63L1,10.61a2.62,2.62,0,0,0-.32,3.73,2.7,2.7,0,0,0,3,.75l1.31,1.53A21,21,0,0,0,.52,29.67,21.54,21.54,0,0,0,22.22,51a21.55,21.55,0,0,0,21.7-21.33A21,21,0,0,0,38.84,16Zm-17.38,34A19.57,19.57,0,0,1,2.51,29.67,19.07,19.07,0,0,1,6.39,18.13c.15-.2.3-.39.46-.58a20,20,0,0,1,2.06-2.16c.17-.16.35-.31.53-.46a19.86,19.86,0,0,1,9.81-4.42l.71-.09.71-.07c.51,0,1-.06,1.55-.06s1,0,1.55.06l.71.07.71.09a19.73,19.73,0,0,1,9.17,3.91c.19.14.37.29.55.44l.54.46c.4.35.78.73,1.15,1.11l.48.52c.16.18.31.36.46.55a19.09,19.09,0,0,1,4.39,12.17A19.57,19.57,0,0,1,22.22,49.05ZM2.78,13.88a1.29,1.29,0,0,1-1-.44A1.25,1.25,0,0,1,2,11.67L4,9.94a1.28,1.28,0,0,1,.82-.29,1.27,1.27,0,0,1,1,.44,1.24,1.24,0,0,1,.3.92,1.38,1.38,0,0,1-.17.53,1.22,1.22,0,0,1-.28.32L3.6,13.59a1.36,1.36,0,0,1-.37.21A1.42,1.42,0,0,1,2.78,13.88Zm3.39-.6.94,1.1c-.39.37-.76.75-1.12,1.15l-1-1.23ZM18.8,3.34a1.87,1.87,0,0,1,1.88-1.85h3.13a1.87,1.87,0,0,1,1.88,1.85v.74A1.85,1.85,0,0,1,25,5.52a1.91,1.91,0,0,1-1.19.42H20.68a1.89,1.89,0,0,1-1.22-.45,1.84,1.84,0,0,1-.66-1.41Zm1.87,4h3.1V8.4c-.51,0-1-.06-1.55-.06s-1,0-1.55.06Zm16.06,6.5.47-.55,1.23,1-.54.63C37.51,14.55,37.13,14.18,36.73,13.83Zm4.83-.39a1.27,1.27,0,0,1-1,.44,1.33,1.33,0,0,1-.45-.08,1.23,1.23,0,0,1-.37-.21l-2.09-1.73a1.18,1.18,0,0,1-.27-.32,1.11,1.11,0,0,1-.17-.53,1.23,1.23,0,0,1,.29-.92,1.31,1.31,0,0,1,1.8-.15l2.08,1.73A1.24,1.24,0,0,1,41.56,13.44Z"/><path class="cls-1" d="M24.26,13.07a17.49,17.49,0,0,0-4.09,0,16.85,16.85,0,0,0-15,16.6,16.9,16.9,0,0,0,17,16.73,16.89,16.89,0,0,0,17-16.73A16.85,16.85,0,0,0,24.26,13.07Zm-2,31.37a14.77,14.77,0,1,1,0-29.54,14.92,14.92,0,0,1,15,14.77A14.92,14.92,0,0,1,22.22,44.44Z"/><path class="cls-1" d="M22.22,20.29a1,1,0,0,0,1-1V16.2a1,1,0,0,0-2,0v3.11A1,1,0,0,0,22.22,20.29Z"/><path class="cls-1" d="M22.22,39.05a1,1,0,0,0-1,1v3.11a1,1,0,0,0,2,0V40A1,1,0,0,0,22.22,39.05Z"/><path class="cls-1" d="M16.23,17.52a1,1,0,0,0-1.36-.36,1,1,0,0,0-.36,1.34l1.58,2.69a1,1,0,0,0,.86.49,1.13,1.13,0,0,0,.5-.13,1,1,0,0,0,.36-1.34Z"/><path class="cls-1" d="M28.35,38.15A1,1,0,0,0,27,37.8a1,1,0,0,0-.36,1.33l1.58,2.69a1,1,0,0,0,.86.49,1,1,0,0,0,.49-.13,1,1,0,0,0,.37-1.33Z"/><path class="cls-1" d="M13.59,23.65l-2.74-1.56a1,1,0,0,0-1.36.36,1,1,0,0,0,.37,1.33l2.74,1.56a1,1,0,0,0,.49.13A1,1,0,0,0,14,25,1,1,0,0,0,13.59,23.65Z"/><path class="cls-1" d="M34.58,35.56,31.84,34a1,1,0,0,0-1.36.36,1,1,0,0,0,.37,1.34l2.74,1.55a1,1,0,0,0,.49.13,1,1,0,0,0,.86-.49A1,1,0,0,0,34.58,35.56Z"/><path class="cls-1" d="M12.67,29.67a1,1,0,0,0-1-1H8.52a1,1,0,1,0,0,2h3.16A1,1,0,0,0,12.67,29.67Z"/><path class="cls-1" d="M35.92,28.69H32.75a1,1,0,1,0,0,2h3.17a1,1,0,1,0,0-2Z"/><path class="cls-1" d="M12.6,34,9.86,35.56a1,1,0,0,0-.37,1.33,1,1,0,0,0,.86.49,1,1,0,0,0,.5-.13l2.74-1.55A1,1,0,0,0,14,34.36,1,1,0,0,0,12.6,34Z"/><path class="cls-1" d="M30.48,25a1,1,0,0,0,1.36.36l2.74-1.56a1,1,0,0,0,.36-1.33,1,1,0,0,0-1.35-.36l-2.74,1.56A1,1,0,0,0,30.48,25Z"/><path class="cls-1" d="M17.45,37.8a1,1,0,0,0-1.36.35l-1.58,2.7a1,1,0,0,0,.36,1.33,1,1,0,0,0,.5.13,1,1,0,0,0,.86-.49l1.58-2.69A1,1,0,0,0,17.45,37.8Z"/><path class="cls-1" d="M27,21.55a1.13,1.13,0,0,0,.5.13,1,1,0,0,0,.86-.49l1.58-2.69a1,1,0,0,0-.37-1.34,1,1,0,0,0-1.35.36l-1.58,2.69A1,1,0,0,0,27,21.55Z"/><path class="cls-1" d="M31.61,21.1A.73.73,0,0,0,30.7,21l-8.64,5.57a3.12,3.12,0,1,0,3.32,3.37L31.65,22A.69.69,0,0,0,31.61,21.1Zm-9.39,9.73a1.16,1.16,0,1,1,1.18-1.16A1.17,1.17,0,0,1,22.22,30.83ZM25,28.15A3.19,3.19,0,0,0,23.91,27l4-2.58Z"/></svg>