<svg id="Слой_1" data-name="Слой 1" xmlns="http://www.w3.org/2000/svg" viewBox="0 0 72 72"><defs><style>.cls-1{fill:#4b4d4f;}.cls-2{fill:#fff;}</style></defs><polygon points="0.61 24.35 3.74 28.19 34.87 66.36 22 24.35 0.61 24.35"/><polygon class="cls-1" points="59.99 4 59.99 4 59.99 4 59.99 4"/><polygon points="37.19 66.26 68.23 28.19 71.36 24.35 51.2 24.35 37.19 66.26"/><polygon class="cls-1" points="72 23.57 72 23.57 72 23.57 72 23.57"/><polygon points="59.23 4 36.87 4 50.63 22.23 59.23 4"/><polygon points="11.57 4.68 0.46 22.78 21.26 22.78 11.57 4.68"/><polygon points="71.52 22.78 60.42 4.7 51.88 22.78 71.52 22.78"/><polygon class="cls-1" points="72 23.57 72 23.57 72 23.57 72 23.57"/><polygon points="35.13 4 12.77 4 22.53 22.23 35.13 4"/><polygon points="36.01 5.2 23.86 22.78 49.28 22.78 36.01 5.2"/><path class="cls-2" d="M72,23.57h0l-.48-.78H51.88L60.42,4.7,60,4h-.76l-8.6,18.23L36.87,4H35.13L22.53,22.23,12.77,4H12l-.41.68,9.69,18.1H.46L0,23.57l.64.78H22l12.87,42L36,67.74l1.2-1.48,14-41.91H71.36l.64-.78ZM36,5.2,49.28,22.78H23.86Zm0,60.34L23.4,24.35H49.79Z"/><polygon points="36.01 67.74 49.79 24.35 23.4 24.35 36.01 67.74"/></svg>