<svg id="Слой_1" data-name="Слой 1" xmlns="http://www.w3.org/2000/svg" viewBox="0 0 44 51"><path d="M19.27,3.4C11.9,4.12,5,7.45,4.65,15.5,4.3,24.55,11.84,27.2,19.27,29V39.06c-3.66-1.61-3.78-5.89-3.78-5.89L3,34.59c1,8.76,8.52,12,16.27,12.51v3.35h2.61V.21H19.27Zm0,14.66c-.26-.1-.5-.21-.72-.32-3.24-1.67-2.8-5.06.72-6.28Z"/><path d="M38.34,25.63c-3.73-3.3-8.81-4.76-13.09-5.86V11.65a5.76,5.76,0,0,1,3.08,3.73l12.13-2c-1.37-5.6-7.28-9.32-15.21-10V.21h-2.1V50.45h2.1V47c4.31-.42,8.11-1.52,10.15-2.75C41.88,40.35,44.47,31.05,38.34,25.63ZM25.25,39.37V30.65c3,1,4,2,4.49,3.7C30.32,36.36,28.87,38.6,25.25,39.37Z"/></svg>