<svg id="Слой_1" data-name="Слой 1" xmlns="http://www.w3.org/2000/svg" viewBox="0 0 70 70"><defs><style>.cls-1,.cls-2{fill:#fff;}.cls-2{fill-rule:evenodd;}</style></defs><path class="cls-1" d="M35,70A35,35,0,1,1,70,35,35,35,0,0,1,35,70ZM35,3.76A31.24,31.24,0,1,0,66.24,35,31.27,31.27,0,0,0,35,3.76Z"/><path class="cls-2" d="M29.51,35.17V55.45A.53.53,0,0,0,30,56h7.53a.53.53,0,0,0,.53-.53V34.83h5.46a.53.53,0,0,0,.53-.48l.52-6.21a.52.52,0,0,0-.52-.57h-6V23.16A1.87,1.87,0,0,1,40,21.29h4.21a.53.53,0,0,0,.53-.53V14.55a.53.53,0,0,0-.53-.53H37.07a7.55,7.55,0,0,0-7.56,7.56v6H25.74a.52.52,0,0,0-.52.52v6.22a.52.52,0,0,0,.52.52h3.77Z"/></svg>