<svg id="Слой_1" data-name="Слой 1" xmlns="http://www.w3.org/2000/svg" viewBox="0 0 72 72"><path d="M58.69,8.61A29.48,29.48,0,0,0,39.58,1.18l-.17,27.31Z"/><path d="M34.45,1C15.12,1,.84,16.67.84,36a35,35,0,0,0,35,35C49.39,71,62,63,66.64,52.67L35.15,36V1Z"/><polygon points="52.49 21.16 47.43 37.31 50.35 38.87 57.53 15.98 52.49 21.16"/><polygon points="45.96 27.87 43.63 35.28 46.56 36.84 51 22.69 45.96 27.87"/><path d="M66.72,18.15,58.8,43.4,61.72,45l7.09-22.58A33.24,33.24,0,0,0,66.72,18.15Z"/><path d="M69.36,23.83l-6.77,21.6L65.51,47l5.35-17A31,31,0,0,0,69.36,23.83Z"/><path d="M71.16,34c0-.55,0-1.1,0-1.65L66.38,47.46l1.71.92A31.26,31.26,0,0,0,71.16,34Z"/><path d="M61.74,11.66,59,14.44l-7.81,24.9,2.92,1.56,8.78-28C62.54,12.49,62.14,12.07,61.74,11.66Z"/><polygon points="40.43 33.56 42.77 34.81 44.47 29.41 40.43 33.56"/><path d="M63.67,13.78,55,41.37l2.92,1.56,8.12-25.87A32.69,32.69,0,0,0,63.67,13.78Z"/></svg>