<svg id="Слой_1" data-name="Слой 1" xmlns="http://www.w3.org/2000/svg" viewBox="0 0 44 45"><defs><style>.cls-1{fill:#020202;}</style></defs><path class="cls-1" d="M.51,33.4l18.9-11.15L.43,11.06V32.72A3.08,3.08,0,0,0,.51,33.4Z"/><path class="cls-1" d="M20.24,22.75.83,34.19a3,3,0,0,0,2.59,1.52H40.59A3,3,0,0,0,43.3,34l-19-11.21-2,1.19Z"/><path class="cls-1" d="M43.58,32.72V11.37L25.13,22.25,43.54,33.11A2.58,2.58,0,0,0,43.58,32.72Z"/><path class="cls-1" d="M3.42,7a3,3,0,0,0-3,3v.09L22.27,23,43.58,10.39V10a3,3,0,0,0-3-3Z"/></svg>