<svg id="Слой_1" data-name="Слой 1" xmlns="http://www.w3.org/2000/svg" viewBox="0 0 44 51"><path d="M4.79,20.32a2.16,2.16,0,0,0-2,3.64l0,0h0l4.08,4.08,6.43-6.43L4.79,20.29Z"/><path d="M28.25,43.54h0L27,35.39l-6.4,6.4,3.92,3.92,0,0a1.56,1.56,0,0,0,.16.2,2.17,2.17,0,0,0,3.54-2.35Z"/><path d="M21,29.47,19.2,27.69a1.54,1.54,0,0,0-1.1-.46,1.52,1.52,0,0,0-1.1.46L13.72,31l-.5.5a1.52,1.52,0,0,0-.46,1.1,1.58,1.58,0,0,0,.46,1.1L15,35.45a1.58,1.58,0,0,0,1.1.46,1.52,1.52,0,0,0,1.1-.46L21,31.67a1.55,1.55,0,0,0,0-2.2Z"/><path d="M37,23.78h0L41.66,9.88a1.9,1.9,0,0,0,.15-.46h0A2.09,2.09,0,0,0,39.27,7h0l-.3.1L25.38,11.54a2.46,2.46,0,0,0-1.29.66l-9.62,9.62L7.55,28.74,6.38,29.91a2.61,2.61,0,0,0,0,3.71L8,35.21l-.4.78,5.06,5.07.78-.4,1.64,1.63a2.61,2.61,0,0,0,3.71,0l1.17-1.17,6.89-6.88,9.65-9.66A2.63,2.63,0,0,0,37,23.78ZM17.69,35.94a2.25,2.25,0,0,1-3.17,0l-1.79-1.79a2.25,2.25,0,0,1,0-3.17l.5-.49,3.29-3.29a2.24,2.24,0,0,1,3.16,0L21.47,29a2.24,2.24,0,0,1,0,3.16Zm6.77-11.73a4,4,0,1,1,5.7,0A4,4,0,0,1,24.46,24.21Z"/></svg>