<svg id="Слой_1" data-name="Слой 1" xmlns="http://www.w3.org/2000/svg" viewBox="0 0 44 45"><path d="M13.87,19.57l1.34-1.47a6,6,0,0,0-.43-8.6l-2.27-2a6.21,6.21,0,0,0-8.71.43L2.46,9.37A8,8,0,0,0,2,10l-.06.07C.64,11.12-.44,13.73.18,16.91A34.44,34.44,0,0,0,30.94,44.38a8.76,8.76,0,0,0,5.31-1.09,6.55,6.55,0,0,0,1.51-1.2l1.34-1.46A6.06,6.06,0,0,0,38.66,32L36.4,30a6.24,6.24,0,0,0-8.72.43L26.34,31.9A6,6,0,0,0,25.07,34l-.12.35-.35-.13A25.89,25.89,0,0,1,10.86,21.81l-.19-.38.41-.12A6.18,6.18,0,0,0,13.87,19.57Z"/><path d="M21.4,2a1.43,1.43,0,0,0,1.44,1.41A18.19,18.19,0,0,1,41.12,21.47a1.44,1.44,0,0,0,2.88,0A21.06,21.06,0,0,0,22.84.57,1.44,1.44,0,0,0,21.4,2Z"/><path d="M21.17,8.94a1.43,1.43,0,0,0,1.44,1.42A11.42,11.42,0,0,1,34.09,21.69a1.44,1.44,0,0,0,2.87,0A14.28,14.28,0,0,0,22.61,7.52,1.44,1.44,0,0,0,21.17,8.94Z"/></svg>