<svg id="Слой_1" data-name="Слой 1" xmlns="http://www.w3.org/2000/svg" viewBox="0 0 70 49"><defs><style>.cls-1{fill:#050505;}</style></defs><path class="cls-1" d="M17.74,35.51A7.5,7.5,0,1,0,25.09,43,7.44,7.44,0,0,0,17.74,35.51Zm0,12.71A5.22,5.22,0,1,1,22.86,43,5.17,5.17,0,0,1,17.74,48.22Z" transform="translate(0 -1.5)"/><path class="cls-1" d="M17.74,39.88A3.13,3.13,0,1,0,20.81,43,3.1,3.1,0,0,0,17.74,39.88Z" transform="translate(0 -1.5)"/><path class="cls-1" d="M55.3,35.51A7.5,7.5,0,1,0,62.65,43,7.44,7.44,0,0,0,55.3,35.51Zm0,12.71A5.22,5.22,0,1,1,60.42,43,5.17,5.17,0,0,1,55.3,48.22Z" transform="translate(0 -1.5)"/><path class="cls-1" d="M55.3,39.88A3.13,3.13,0,1,0,58.37,43,3.1,3.1,0,0,0,55.3,39.88Z" transform="translate(0 -1.5)"/><path class="cls-1" d="M69.32,20.56l-6.17-2.63c-.78-1.43-3.76-6.71-6.11-8.79a1.08,1.08,0,0,0-.73-.27H47.17V2.64A1.13,1.13,0,0,0,46.06,1.5H1.12A1.13,1.13,0,0,0,0,2.64V30.43a1.13,1.13,0,0,0,1.12,1.14H3.05v8.31A1.13,1.13,0,0,0,4.17,41H9.09a1.12,1.12,0,0,0,1.05-.75,8,8,0,0,1,15.2,0,1.12,1.12,0,0,0,1.05.75H46.65a1.12,1.12,0,0,0,1.05-.75,8,8,0,0,1,15.2,0A1.12,1.12,0,0,0,64,41h4.93A1.13,1.13,0,0,0,70,39.88V21.61A1.14,1.14,0,0,0,69.32,20.56ZM47.19,11.14h8.68c2.35,2.33,5.48,8.17,5.52,8.23a1,1,0,0,0,.55.5l5.83,2.5v7.05H47.19Zm-45-4H5.05v19H2.23Zm4.26,0h3v19h-3Zm4.43,0h3v19h-3Zm4.44,0h3v19h-3Zm4.43,0h3v19h-3Zm4.44,0h3v19h-3Zm4.43,0h3v19h-3Zm4.44,0h3v19h-3Zm4.43,0h3v19h-3ZM42,7.1h3v19H42ZM2.23,3.78H44.94v1.7H2.23Zm0,25.51v-1.6H44.94v1.6Zm65.54,9.45H64.71a10.21,10.21,0,0,0-18.81,0H27.15a10.21,10.21,0,0,0-18.81,0h-3v-7H67.77Z" transform="translate(0 -1.5)"/><path class="cls-1" d="M54.43,13.1H48.55v7.11H59.4l-.06-.1A50.52,50.52,0,0,0,54.43,13.1Z" transform="translate(0 -1.5)"/><rect class="cls-1" x="50.13" y="21.41" width="3.53" height="1.31"/></svg>