<svg id="Слой_1" data-name="Слой 1" xmlns="http://www.w3.org/2000/svg" viewBox="0 0 72 72"><path d="M14.52,36A21.45,21.45,0,1,0,36,14.56,21.45,21.45,0,0,0,14.52,36Zm36.39-1.3A15,15,0,1,1,34.66,21.05,15,15,0,0,1,50.91,34.66Z"/><path d="M65.38,47.79l3.54-.13a2.2,2.2,0,0,0,1.9-1.51L72,40.55a2.18,2.18,0,0,0-1.13-2.14l-3.19-1.54a2.69,2.69,0,0,1-1.38-2.16s0-.41-.09-1.38l0-.33c0-.36.48-1,1.18-1.46l3-1.89a2.2,2.2,0,0,0,.89-2.26L69.47,22a2.19,2.19,0,0,0-2-1.28l-3.56.25a2.53,2.53,0,0,1-2.17-1c-.37-.61-1.14-2.74-.75-3.46l1.65-3.14a2.19,2.19,0,0,0-.36-2.39L58,7.13A2.2,2.2,0,0,0,55.54,7L52.59,9a2.55,2.55,0,0,1-2.38.22c-.62-.34-2.36-1.81-2.39-2.64l-.14-3.53a2.18,2.18,0,0,0-1.51-1.9L40.56,0a2.18,2.18,0,0,0-2.14,1.13L36.87,4.34a2.67,2.67,0,0,1-2.15,1.37s-.42,0-1.38.09l-.34,0c-.36,0-1-.49-1.46-1.19l-1.9-3A2.18,2.18,0,0,0,27.39.75L21.94,2.53a2.17,2.17,0,0,0-1.29,2l.26,3.55a2.52,2.52,0,0,1-1,2.17c-.61.37-2.74,1.14-3.47.76L13.29,9.4a2.18,2.18,0,0,0-2.4.35L7.07,14A2.18,2.18,0,0,0,7,16.43l2,2.94a2.53,2.53,0,0,1,.22,2.37c-.35.63-1.82,2.36-2.64,2.39L3,24.27a2.2,2.2,0,0,0-1.9,1.5L0,31.38a2.18,2.18,0,0,0,1.13,2.13l3.2,1.55a2.66,2.66,0,0,1,1.37,2.15s0,.41.09,1.38l0,.33c.05.37-.49,1-1.19,1.46l-3,1.9a2.2,2.2,0,0,0-.89,2.25L2.46,50a2.21,2.21,0,0,0,2.06,1.29L8.07,51a2.53,2.53,0,0,1,2.17,1c.37.61,1.14,2.73.76,3.46L9.34,58.59A2.19,2.19,0,0,0,9.7,61L14,64.79a2.16,2.16,0,0,0,2.42.09l2.94-2a2.52,2.52,0,0,1,2.38-.21c.62.34,2.36,1.81,2.39,2.63l.14,3.54a2.18,2.18,0,0,0,1.51,1.89l5.61,1.17a2.2,2.2,0,0,0,2.14-1.13l1.55-3.2a2.7,2.7,0,0,1,2.16-1.37s.41,0,1.38-.08l.33,0c.37,0,1,.48,1.47,1.18l1.89,3a2.19,2.19,0,0,0,2.26.89L50,69.4a2.19,2.19,0,0,0,1.28-2.05L51,63.8a2.53,2.53,0,0,1,1-2.17c.61-.37,2.74-1.13,3.47-.75l3.15,1.65A2.19,2.19,0,0,0,61,62.17l3.82-4.26A2.16,2.16,0,0,0,65,55.49l-2-2.94a2.48,2.48,0,0,1-.22-2.37C63.08,49.56,64.55,47.82,65.38,47.79ZM36,60.35A24.39,24.39,0,1,1,60.41,36,24.44,24.44,0,0,1,36,60.35Z"/></svg>