<svg id="Слой_1" data-name="Слой 1" xmlns="http://www.w3.org/2000/svg" viewBox="0 0 69.82 69.82"><defs><style>.cls-1{fill:#fff;}.cls-2{fill:none;stroke:#fff;stroke-linecap:round;stroke-linejoin:round;stroke-width:2px;}</style></defs><path class="cls-1" d="M35,3.59A31.41,31.41,0,1,1,3.59,35,31.44,31.44,0,0,1,35,3.59m0-3.5A34.91,34.91,0,1,0,69.91,35,34.91,34.91,0,0,0,35,.09Z" transform="translate(-0.09 -0.09)"/><line class="cls-2" x1="26.04" y1="38.19" x2="29.89" y2="48.59"/><polygon class="cls-2" points="30.33 40.12 29.95 48.7 35.47 44.02 30.33 40.12"/><path class="cls-2" d="M52.16,19.74,17,33.09a1.13,1.13,0,0,0,0,2.13l9.06,3.06L46.76,25.89,30.42,40.21l12.72,9.65a2.32,2.32,0,0,0,3.65-1.28l6.87-27.51A1.13,1.13,0,0,0,52.16,19.74Z" transform="translate(-0.09 -0.09)"/></svg>