<svg id="Слой_1" data-name="Слой 1" xmlns="http://www.w3.org/2000/svg" viewBox="0 0 44 51"><defs><style>.cls-1{fill:#050505;}</style></defs><path class="cls-1" d="M1.61,46.87h31l0,0h.05l0,0,0,0,.05,0,0,0,0,0,0,0,0,0,0,0,0,0,10-9.86h0l0,0,0,0a.18.18,0,0,0,0-.07.21.21,0,0,0,0-.06l0,0s0,0,0,0a.05.05,0,0,0,0,0s0,0,0,0,0,0,0-.05a.06.06,0,0,1,0,0s0,0,0-.06a.28.28,0,0,0,0-.09V36h0V5.14a1,1,0,0,0-1-1h-31l-.05,0h0l0,0,0,0,0,0,0,0-.05,0,0,0,0,0,0,0,0,0L.9,14.28h0l-.05.05,0,0a.18.18,0,0,0,0,.07.21.21,0,0,0,0,.06l0,0s0,0,0,.05a.05.05,0,0,0,0,0s0,0,0,0,0,0,0,0a.06.06,0,0,1,0,0s0,0,0,.06a.28.28,0,0,0,0,.09V15h0V45.86A1,1,0,0,0,1.61,46.87Zm29.75-2H2.61V16h9.55V31.54l2.65-1.84,2,1.84,2-1.92L22,31.54V16h9.4Zm2-29.44,8-8.12V35.58l-8,7.88ZM31.94,14H23.15l7.69-7.84h8.85ZM12.05,6.15H21L13,14H4.07Z"/></svg>