<svg id="Слой_1" data-name="Слой 1" xmlns="http://www.w3.org/2000/svg" viewBox="0 0 70 70"><defs><style>.cls-1,.cls-2{fill:#fff;}.cls-2{fill-rule:evenodd;}</style></defs><path class="cls-1" d="M35,70A35,35,0,1,1,70,35,35,35,0,0,1,35,70ZM35,3.76A31.24,31.24,0,1,0,66.24,35,31.27,31.27,0,0,0,35,3.76Z" transform="translate(0 0)"/><path class="cls-2" d="M36.65,12.22A21.16,21.16,0,0,0,15.52,33.35,20.9,20.9,0,0,0,18.9,44.8l-3.21,7.07a1.84,1.84,0,0,0,1.68,2.61,1.59,1.59,0,0,0,.48-.07L26.7,52a21.13,21.13,0,1,0,10-39.77Zm0,38.57a17.38,17.38,0,0,1-8.78-2.38,1.91,1.91,0,0,0-.93-.25,1.66,1.66,0,0,0-.49.07l-5.78,1.58,2-4.43a1.84,1.84,0,0,0-.19-1.84,17.44,17.44,0,1,1,14.15,7.25Z" transform="translate(0 0)"/><path class="cls-2" d="M44.78,36.51c-.89-.53-2-1.12-3.08-.69-.8.33-1.31,1.58-1.83,2.22a.76.76,0,0,1-1,.21,13.86,13.86,0,0,1-7-6,.85.85,0,0,1,.1-1.16,4.67,4.67,0,0,0,1.27-2.06,4.54,4.54,0,0,0-.57-2.43c-.42-.9-.88-2.19-1.79-2.7a2.45,2.45,0,0,0-2.67.4,5.4,5.4,0,0,0-1.88,4.29A6.18,6.18,0,0,0,26.55,30a11,11,0,0,0,1.31,3,24,24,0,0,0,1.36,2.08,21.22,21.22,0,0,0,5.92,5.49,18.11,18.11,0,0,0,3.69,1.76,8.23,8.23,0,0,0,4.29.67A5.2,5.2,0,0,0,47,40.11a2.52,2.52,0,0,0,.18-1.48C47,37.61,45.6,37,44.78,36.51Z" transform="translate(0 0)"/></svg>