<svg id="Слой_1" data-name="Слой 1" xmlns="http://www.w3.org/2000/svg" viewBox="0 0 44 51"><defs><style>.cls-1{fill:#050505;}</style></defs><path class="cls-1" d="M22,50.73A20.91,20.91,0,0,0,37.31,15.52C39,12.76,41,9,41,6.94a6.67,6.67,0,0,0-13.34,0,8.58,8.58,0,0,0,.74,2.94,20.91,20.91,0,0,0-17,1.95A5.57,5.57,0,0,0,1,14.67c0,1.43,1.14,3.79,2.31,5.84A20.92,20.92,0,0,0,22,50.73ZM10,30.8a20.43,20.43,0,0,0,1.55,6.51,20.84,20.84,0,0,0-5.27,3A18.81,18.81,0,0,1,3.14,30.8Zm3.06-6.94a30.65,30.65,0,0,0,8,1.43v3.53H12A18,18,0,0,1,13.06,23.86Zm19,5H23V25.33a31.39,31.39,0,0,0,8.11-1.13A18.24,18.24,0,0,1,32.1,28.82Zm-1.3,7.51a32,32,0,0,0-7.76-1V30.8H32.1A18.24,18.24,0,0,1,30.8,36.33ZM12,30.8h9.06v4.54a31.14,31.14,0,0,0-7.63,1.31A18.19,18.19,0,0,1,12,30.8Zm9.06,6.52v9.93a34.84,34.84,0,0,1-6.79-8.78A29.47,29.47,0,0,1,21.05,37.32Zm2,9.92v-10a29.35,29.35,0,0,1,6.93.88A34.29,34.29,0,0,1,23,47.24Zm0-23.9V12.24a34.16,34.16,0,0,1,7.37,10.11A29.67,29.67,0,0,1,23,23.34Zm-2-11.09V23.3A28.77,28.77,0,0,1,13.82,22,34.45,34.45,0,0,1,21.05,12.25ZM7.46,41.87h0a19.08,19.08,0,0,1,4.89-2.74,31.34,31.34,0,0,0,3.35,5.24,41.42,41.42,0,0,0,3.84,4.22A19,19,0,0,1,7.46,41.87Zm17.06,6.71a40.22,40.22,0,0,0,3.85-4.22,31.72,31.72,0,0,0,3.54-5.62,20.67,20.67,0,0,1,5.18,2.55A19,19,0,0,1,24.52,48.58Zm13.69-8.93a22.87,22.87,0,0,0-5.51-2.74,20.25,20.25,0,0,0,1.39-6.11H41A18.83,18.83,0,0,1,38.21,39.65ZM34.09,28.82A19.78,19.78,0,0,0,33,23.6a21.82,21.82,0,0,0,5.6-2.92A18.87,18.87,0,0,1,41,28.82ZM39,6.94c0,1.39-1.52,4.4-3.17,7.16-.35.59-.71,1.17-1.06,1.71-.15.25-.3.48-.45.71-.44-.67-.9-1.41-1.36-2.17-.68-1.13-1.35-2.31-1.91-3.41a11.39,11.39,0,0,1-1.42-4,4.69,4.69,0,0,1,9.37,0Zm-9.4,5.51a70.15,70.15,0,0,0,3.9,6.42,1,1,0,0,0,1.64,0c.14-.21.54-.79,1.06-1.61A18.8,18.8,0,0,1,37.57,19a19.94,19.94,0,0,1-5.25,2.76,30.34,30.34,0,0,0-3.95-6.56,39.48,39.48,0,0,0-3.69-4.13A19,19,0,0,1,29.61,12.45Zm-10.2-1.39a40.65,40.65,0,0,0-3.69,4.13A31.45,31.45,0,0,0,12,21.34a21.52,21.52,0,0,1-2-1c1.5-2.63,2.23-4.49,2.23-5.69a4.9,4.9,0,0,0-.08-.94A18.77,18.77,0,0,1,19.41,11.06Zm-12.84,0A3.61,3.61,0,0,1,9.7,12.93a3.66,3.66,0,0,1,.45,1.74,2,2,0,0,1-.07.48,18.39,18.39,0,0,1-1.86,4.17c-.29.54-.63,1.11-1,1.72l-.64,1c-.36-.55-.69-1.07-1-1.57-.43-.72-.81-1.38-1.12-2A11.35,11.35,0,0,1,3,14.67,3.58,3.58,0,0,1,6.57,11.09Zm-2,11.48c.59.93,1.06,1.61,1.2,1.82a1,1,0,0,0,.82.43,1,1,0,0,0,.81-.43c0-.06.7-1,1.51-2.32.73.4,1.51.77,2.31,1.11A20.35,20.35,0,0,0,10,28.82H3.14A18.81,18.81,0,0,1,4.55,22.57Z"/></svg>